<?xml version="1.0" encoding="utf-8"?>
<!-- Uploaded to: SVG Repo, www.svgrepo.com, Generator: SVG Repo Mixer Tools -->
<svg width="800px" height="800px" viewBox="0 0 64 64" xmlns="http://www.w3.org/2000/svg">
<title>continent</title>
<g id="continent">
<circle cx="43.74" cy="3.987" r="1.069"/>
<circle cx="57.74" cy="17.987" r="1.069"/>
<circle cx="61.74" cy="9.987" r="1.069"/>
<circle cx="55.5" cy="6.5" r="2.5" style="fill:none;stroke:#000000;stroke-linecap:round;stroke-linejoin:round;stroke-width:2px"/>
<circle cx="30" cy="34" r="28" style="fill:none"/>
<circle cx="30" cy="34" r="28" style="fill:none;stroke:#000000;stroke-linecap:round;stroke-linejoin:round;stroke-width:2px"/>
<path d="M19.247,53.952h0a1.052,1.052,0,0,0,.581-.175L21.586,52.6a1.052,1.052,0,0,1,.581-.175h.922a1.046,1.046,0,0,0,1.046-1.047V51.19a1.047,1.047,0,0,1,1.047-1.047h5.377a1.046,1.046,0,0,1,.74.306l1.979,1.98v.761h1.469a1.046,1.046,0,0,1,1.015.793l.366,2.224A1.046,1.046,0,0,0,37.143,57h1.584a1.046,1.046,0,0,0,.936-.579l.183-.366a1.046,1.046,0,0,1,.936-.579h1.032c.375,0,.722-.963.909-1.289l2.662-4.659a1.052,1.052,0,0,0,.117-.314l.652-3.258a1.048,1.048,0,0,0-.118-.725l-2.654-4.646a1.048,1.048,0,0,0-.578-.473l-1.271-.424a1.048,1.048,0,0,1-.71-.877l-.244-2.2a1.046,1.046,0,0,0-.572-.821l-.436-.218a1.047,1.047,0,0,1-.578-.936V33h-.762l-1.787,2.978a1.047,1.047,0,0,1-1.366.4l-1.369-.684a1.048,1.048,0,0,1-.525-1.268l.016-.046A1.047,1.047,0,0,0,32.207,33H29.735a1.045,1.045,0,0,0-.936.579L27.94,35.3a1.049,1.049,0,0,1-1.191.547l-1.541-.385a1.046,1.046,0,0,0-1.106.407l-3.244,4.541a1.04,1.04,0,0,1-.384.328L15.548,43.2a1.046,1.046,0,0,0-.468,1.4l3.195,6.39a1.051,1.051,0,0,1,.1.616l-.164,1.149A1.046,1.046,0,0,0,19.247,53.952Z" style="fill:none;stroke:#000000;stroke-linecap:round;stroke-linejoin:round;stroke-width:2px"/>
<polyline points="4.847 22.389 6 27 11 28 15 32 21 32 21 29 16 28 11 24 11 18 17 20 20 17 16.77 9.733" style="fill:none;stroke:#000000;stroke-linecap:round;stroke-linejoin:round;stroke-width:2px"/>
<polyline points="28.036 29.233 32.151 28.977 35.964 27.767" style="fill:none;stroke:#000000;stroke-linecap:round;stroke-linejoin:round;stroke-width:2px"/>
<line x1="21" y1="20" x2="20" y2="21" style="fill:none;stroke:#000000;stroke-linecap:round;stroke-linejoin:round;stroke-width:2px"/>
<line x1="33" y1="58" x2="34" y2="59" style="fill:none;stroke:#000000;stroke-linecap:round;stroke-linejoin:round;stroke-width:2px"/>
<polygon points="45 35 44 32 40 30 39 27 46 29 47 34 45 35" style="fill:none;stroke:#000000;stroke-linecap:round;stroke-linejoin:round;stroke-width:2px"/>
<line x1="20" y1="25" x2="22" y2="26" style="fill:none;stroke:#000000;stroke-linecap:round;stroke-linejoin:round;stroke-width:2px"/>
<line x1="26" y1="25" x2="27" y2="24" style="fill:none;stroke:#000000;stroke-linecap:round;stroke-linejoin:round;stroke-width:2px"/>
</g>
</svg>